<?xml version="1.0" standalone="no"?>
<!DOCTYPE svg PUBLIC "-//W3C//DTD SVG 20010904//EN"
 "http://www.w3.org/TR/2001/REC-SVG-20010904/DTD/svg10.dtd">
<svg version="1.0" xmlns="http://www.w3.org/2000/svg"
 width="1280.000000pt" height="1280.000000pt" viewBox="0 0 1280.000000 1280.000000"
 preserveAspectRatio="xMidYMid meet">

<g transform="translate(0.000000,1280.000000) scale(0.100000,-0.100000)"
fill="#000000" stroke="none">
<path d="M6005 11449 c-1263 -95 -2344 -606 -3242 -1532 -703 -726 -1141
-1542 -1327 -2477 -151 -753 -134 -1591 45 -2319 49 -201 157 -528 234 -710
192 -455 453 -876 793 -1281 136 -161 503 -527 657 -656 845 -702 1739 -1067
2830 -1154 170 -14 657 -13 832 0 879 69 1664 334 2353 795 882 589 1602 1462
1963 2380 171 436 268 843 324 1360 21 202 24 812 5 1010 -108 1083 -463 1938
-1142 2755 -132 159 -519 546 -675 677 -847 706 -1756 1072 -2865 1153 -157
12 -626 11 -785 -1z m-1450 -2984 l120 -254 1935 -3 1935 -3 41 -22 c57 -30
119 -103 134 -158 7 -24 10 -70 8 -102 -4 -55 -33 -111 -489 -938 -443 -804
-489 -885 -544 -940 -59 -59 -142 -110 -220 -136 -32 -11 -250 -15 -1050 -19
l-1010 -5 -117 -215 c-65 -118 -118 -221 -118 -228 0 -7 11 -24 25 -37 l24
-25 1496 0 1495 0 0 -260 0 -260 -1562 0 c-1319 0 -1574 3 -1631 15 -191 40
-357 206 -398 395 -18 83 -7 223 23 295 14 33 104 202 200 376 l174 316 -460
971 -460 972 -258 0 -258 0 0 260 0 260 423 0 422 0 120 -255z m716 -3871
c226 -67 379 -267 379 -499 0 -281 -234 -514 -515 -515 -144 0 -272 57 -375
167 -306 325 -75 861 371 863 50 0 108 -7 140 -16z m2562 1 c92 -24 157 -63
233 -139 165 -166 199 -379 94 -592 -154 -314 -572 -381 -821 -132 -106 107
-156 242 -146 398 13 220 164 407 375 465 65 18 196 18 265 0z"/>
</g>
</svg>
